<svg xmlns="http://www.w3.org/2000/svg" viewBox="0 0 512 512">
  <defs><radialGradient id="b" cx="50%" cy="35%" r="64%"><stop offset="0" stop-color="#293226"/><stop offset=".58" stop-color="#100c08"/><stop offset="1" stop-color="#050303"/></radialGradient><linearGradient id="g" x1="80" y1="74" x2="432" y2="440"><stop offset="0" stop-color="#fff3b8"/><stop offset=".48" stop-color="#d7a84b"/><stop offset="1" stop-color="#704515"/></linearGradient><linearGradient id="s" x1="78" y1="390" x2="438" y2="102"><stop offset="0" stop-color="#6f3d19"/><stop offset=".45" stop-color="#e6c16b"/><stop offset="1" stop-color="#ffffdc"/></linearGradient></defs>
  <rect x="18" y="18" width="476" height="476" rx="54" fill="url(#b)"/><rect x="31" y="31" width="450" height="450" rx="42" fill="none" stroke="#180b06" stroke-width="18"/><rect x="42" y="42" width="428" height="428" rx="34" fill="none" stroke="url(#g)" stroke-width="12"/>
  <path d="M81 353c98-87 197-155 331-201M94 414c87-69 184-120 311-143M89 285c112-102 208-185 315-219" fill="none" stroke="#070403" stroke-width="40" stroke-linecap="round"/><path d="M81 353c98-87 197-155 331-201M94 414c87-69 184-120 311-143M89 285c112-102 208-185 315-219" fill="none" stroke="url(#s)" stroke-width="17" stroke-linecap="round"/>
  <path d="M384 117l65-12-17 63-25-22-46 37-21-26zM377 238l67 3-33 57-18-28-55 20-12-31zM374 46l65-24-5 70-28-17-39 45-27-22z" fill="#f7dfa0" stroke="#100604" stroke-width="10" stroke-linejoin="round"/><path d="M74 352l-30 27 43-5 7 38 19-49zM91 414l-33 23 45 1 3 39 23-46zM88 285l-33 30 47-6 8 42 20-54z" fill="#795225" stroke="#0f0704" stroke-width="8" stroke-linejoin="round"/>
</svg>
